<?xml version="1.0" encoding="UTF-8" standalone="no"?><!DOCTYPE svg PUBLIC "-//W3C//DTD SVG 1.1//EN" "http://www.w3.org/Graphics/SVG/1.1/DTD/svg11.dtd"><svg width="100%" height="100%" viewBox="0 0 3544 709" version="1.1" xmlns="http://www.w3.org/2000/svg" xmlns:xlink="http://www.w3.org/1999/xlink" xml:space="preserve" xmlns:serif="http://www.serif.com/" style="fill-rule:evenodd;clip-rule:evenodd;stroke-linejoin:round;stroke-miterlimit:2;"><g><g><path d="M143.459,641.68l0,-21.926l-66.053,0l-0,-80.239l-21.926,0l0,102.165l87.979,-0Z" style="fill:#fdfdfd;fill-rule:nonzero;"/><rect x="270.075" y="530.102" width="21.925" height="102.174" style="fill:#f8f7f7;"/><path d="M515.084,632.275l-0,-21.925l-56.349,0c-16.593,0 -28.534,-12.227 -28.534,-29.093c-0,-16.993 12.092,-29.239 28.534,-29.239l56.349,-0l-0,-21.925l-56.349,-0c-29.093,-0 -50.454,19.963 -50.454,50.028c0,29.679 21.361,52.154 50.454,52.154l56.349,0Z" style="fill:#f8f7f7;fill-rule:nonzero;"/><path d="M731.859,632.55l0,-102.457l-21.93,-0l-0,40.917l-45.244,-0l0,18.808l45.244,0l-0,42.732l21.93,0Zm-101.753,0l21.924,0l0,-102.454l-21.924,-0l-0,102.454Z" style="fill:#f8f7f7;fill-rule:nonzero;"/><path d="M903.52,632.275l-0,-80.257l37.524,-0l-0,-21.925l-96.977,-0l0,21.925l37.524,-0l0,80.257l21.929,0Z" style="fill:#f8f7f7;fill-rule:nonzero;"/><path d="M1162.31,588.993l54.249,0l0,-17.286l-54.249,-0l0,17.286Zm58.332,43.282l0,-21.925l-71.128,0l0,-58.332l70.963,-0l0,-21.925l-92.741,-0l-0,102.182l92.906,0Z" style="fill:#f8f7f7;fill-rule:nonzero;"/><path d="M1423.78,629.47c2.933,2.952 5.61,4.198 8.983,4.198c6.471,0 10.962,-4.913 10.962,-13.07l0,-91.477l-20.935,0l0,68.012l-66.893,-64.217c-3.098,-2.97 -5.628,-4.07 -8.873,-4.07c-6.728,0 -10.962,4.913 -10.962,12.924l-0,90.505l20.806,0l0,-68.011l66.912,65.206Z" style="fill:#f8f7f7;fill-rule:nonzero;"/><path d="M1746.09,632.275l0,-60.569l-65.06,0l-0,17.287l43.153,0l0,21.357l-40.77,0c-16.59,0 -28.524,-12.227 -28.524,-29.093c-0,-16.993 12.08,-29.239 28.524,-29.239l56.353,-0l-0,-21.925l-56.353,-0c-29.093,-0 -50.45,19.963 -50.45,50.028c0,29.679 21.357,52.154 50.45,52.154l62.677,0Z" style="fill:#f8f7f7;fill-rule:nonzero;"/><path d="M1897.66,588.993l54.249,0l-0,-17.286l-54.249,-0l0,17.286Zm58.314,43.282l0,-21.925l-71.11,0l0,-58.332l70.982,-0l-0,-21.925l-92.76,-0l-0,102.182l92.888,0Z" style="fill:#f8f7f7;fill-rule:nonzero;"/><path d="M2159.82,632.275l-0,-21.925l-66.069,0l0,-80.257l-21.906,-0l-0,102.182l87.975,0Z" style="fill:#f8f7f7;fill-rule:nonzero;"/><path d="M2362.39,587.16c0,18.131 -7.864,25.023 -34.006,25.023c-26.269,0 -34.152,-6.892 -34.152,-25.023l-0,-57.067l-22.622,-0l0,57.067c0,31.623 16.022,46.508 56.059,46.508c40.202,0 56.096,-14.885 56.096,-46.508l0,-57.067l-21.375,-0l0,57.067Z" style="fill:#f8f7f7;fill-rule:nonzero;"/><rect x="2501.44" y="530.102" width="21.925" height="102.174" style="fill:#f8f7f7;"/><path d="M2702.76,632.275c29.368,0 50.596,-22.475 50.596,-52.154c0,-29.643 -21.228,-50.028 -50.596,-50.028l-60.147,-0l-0,102.182l60.147,0Zm-38.369,-21.925l0,-58.332l38.369,-0c16.572,-0 28.671,12.246 28.671,29.239c0,16.866 -12.099,29.093 -28.671,29.093l-38.369,0Z" style="fill:#f8f7f7;fill-rule:nonzero;"/></g><g><path d="M72.586,91.047l-0,266.914c-0,18.148 -8.191,32.869 -18.27,32.869c-10.088,-0 -18.268,-14.721 -18.268,-32.869l0,-266.914c0,-18.149 8.18,-32.869 18.268,-32.869c10.079,-0 18.27,14.72 18.27,32.869Z" style="fill:#fcfcfc;"/><path d="M133.725,159.957l-0,156.39c-0,15.656 -8.191,28.341 -18.279,28.341c-10.088,0 -18.279,-12.685 -18.279,-28.341l-0,-156.39c-0,-15.656 8.191,-28.36 18.279,-28.36c10.088,0 18.279,12.704 18.279,28.36Z" style="fill:#fcfcfc;"/><path d="M250.38,132.202l0,249.957c0,17.342 -8.181,31.421 -18.27,31.421c-10.088,-0 -18.278,-14.079 -18.278,-31.421l-0,-249.957c-0,-17.36 8.19,-31.439 18.278,-31.439c10.089,-0 18.27,14.079 18.27,31.439Z" style="fill:#fcfcfc;"/><path d="M191.534,62.761l0,369.573c0,18.423 -8.19,33.364 -18.278,33.364c-10.088,-0 -18.279,-14.941 -18.279,-33.364l-0,-369.573c-0,-18.424 8.191,-33.364 18.279,-33.364c10.088,-0 18.278,14.94 18.278,33.364Z" style="fill:#fcfcfc;"/><path d="M313.783,88.847l0,266.914c0,18.149 -8.191,32.869 -18.268,32.869c-10.09,0 -18.269,-14.72 -18.269,-32.869l-0,-266.914c-0,-18.148 8.179,-32.869 18.269,-32.869c10.077,-0 18.268,14.721 18.268,32.869Z" style="fill:#fcfcfc;"/><path d="M374.924,157.757l-0,156.39c-0,15.656 -8.191,28.342 -18.279,28.342c-10.088,-0 -18.279,-12.686 -18.279,-28.342l0,-156.39c0,-15.655 8.191,-28.359 18.279,-28.359c10.088,-0 18.279,12.704 18.279,28.359Z" style="fill:#fcfcfc;"/><path d="M491.578,130.003l-0,249.956c-0,17.342 -8.182,31.421 -18.27,31.421c-10.088,0 -18.279,-14.079 -18.279,-31.421l0,-249.956c0,-17.361 8.191,-31.44 18.279,-31.44c10.088,0 18.27,14.079 18.27,31.44Z" style="fill:#fcfcfc;"/><path d="M432.732,60.561l0,369.573c0,18.423 -8.191,33.364 -18.279,33.364c-10.088,-0 -18.279,-14.941 -18.279,-33.364l0,-369.573c0,-18.424 8.191,-33.364 18.279,-33.364c10.088,-0 18.279,14.94 18.279,33.364Z" style="fill:#fcfcfc;"/><path d="M587.427,443.919l-0,-371.552l114.761,-0c38.881,-0 73.519,3.904 103.913,11.714c30.404,7.791 56.047,19.487 76.931,35.106c20.885,15.582 36.805,34.977 47.764,58.204c10.951,23.208 16.432,50.028 16.432,80.477c0,30.468 -5.481,57.288 -16.432,80.496c-10.959,23.208 -26.879,42.622 -47.764,58.222c-20.884,15.601 -46.527,27.37 -76.931,35.363c-30.394,7.992 -65.032,11.97 -103.913,11.97l-114.761,0Zm78.158,-57.91l-0,-255.695l36.603,0c52.534,0 93.371,10.669 122.528,32.044c29.159,21.339 43.733,53.182 43.733,95.51c-0,42.347 -14.574,74.281 -43.733,95.821c-29.157,21.54 -69.994,32.32 -122.528,32.32l-36.603,-0Zm-16.121,13.364l52.724,-0c60.382,-0 105.989,-12.356 136.799,-37.049c30.809,-24.712 46.211,-59.506 46.211,-104.456c0,-44.932 -15.402,-79.652 -46.211,-104.162c-30.81,-24.51 -76.417,-36.774 -136.799,-36.774l-52.724,-0l-0,282.441Zm70.105,-61.284c31.01,-0 55.005,-6.581 71.957,-19.762c16.955,-13.199 25.432,-33.328 25.432,-60.459c-0,-27.095 -8.477,-47.15 -25.432,-60.147c-16.952,-13.016 -40.947,-19.505 -71.957,-19.505l-0,159.873Z" style="fill:#faf9f9;fill-rule:nonzero;"/><path d="M990.657,258.436c-0,-26.746 5.701,-51.989 17.067,-75.766c11.384,-23.776 26.875,-44.473 46.527,-62.108c19.633,-17.636 42.695,-31.568 69.166,-41.779c26.472,-10.211 54.593,-15.307 84.382,-15.307c29.771,-0 57.893,5.096 84.364,15.307c26.471,10.211 49.515,24.143 69.167,41.779c19.652,17.635 35.16,38.332 46.526,62.108c11.384,23.777 17.067,49.02 17.067,75.766c0,26.728 -5.683,51.99 -17.067,75.748c-11.366,23.777 -26.874,44.474 -46.526,62.127c-19.652,17.636 -42.696,31.568 -69.167,41.761c-26.471,10.229 -54.593,15.343 -84.364,15.343c-29.789,0 -57.91,-5.114 -84.382,-15.343c-26.471,-10.193 -49.533,-24.125 -69.166,-41.761c-19.652,-17.653 -35.143,-38.35 -46.527,-62.127c-11.366,-23.758 -17.067,-49.02 -17.067,-75.748Zm58.314,0c-0,19.671 4.143,38.168 12.411,55.418c8.286,17.269 19.652,32.393 34.116,45.408c14.482,12.998 31.329,23.209 50.559,30.633c19.23,7.425 39.817,11.146 61.742,11.146c21.907,-0 42.494,-3.721 61.724,-11.146c19.23,-7.424 36.096,-17.635 50.56,-30.633c14.464,-13.015 25.848,-28.139 34.115,-45.408c8.268,-17.25 12.411,-35.747 12.411,-55.418c0,-19.688 -4.143,-38.167 -12.411,-55.436c-8.267,-17.268 -19.651,-32.392 -34.115,-45.39c-14.464,-12.997 -31.33,-23.226 -50.56,-30.651c-19.23,-7.424 -39.817,-11.127 -61.724,-11.127c-21.925,-0 -42.512,3.703 -61.742,11.127c-19.23,7.425 -36.077,17.654 -50.559,30.651c-14.464,12.998 -25.83,28.122 -34.116,45.39c-8.268,17.269 -12.411,35.748 -12.411,55.436Zm71.971,0c0,10.761 2.273,20.881 6.82,30.358c4.546,9.459 10.761,17.746 18.625,24.785c7.846,7.058 17.049,12.631 27.608,16.719c10.541,4.088 21.815,6.123 33.804,6.123c11.989,-0 23.264,-2.035 33.804,-6.123c10.56,-4.088 19.744,-9.661 27.608,-16.719c7.865,-7.039 14.061,-15.326 18.607,-24.785c4.547,-9.477 6.82,-19.597 6.82,-30.358c-0,-10.76 -2.273,-20.88 -6.82,-30.357c-4.546,-9.478 -10.742,-17.746 -18.607,-24.804c-7.864,-7.057 -17.048,-12.612 -27.608,-16.7c-10.54,-4.088 -21.815,-6.141 -33.804,-6.141c-11.989,-0 -23.263,2.053 -33.804,6.141c-10.559,4.088 -19.762,9.643 -27.608,16.7c-7.864,7.058 -14.079,15.326 -18.625,24.804c-4.547,9.477 -6.82,19.597 -6.82,30.357Zm86.857,128.123c-19.853,-0 -38.369,-3.337 -55.527,-10.028c-17.159,-6.673 -32.265,-15.875 -45.299,-27.571c-13.015,-11.696 -23.263,-25.262 -30.706,-40.661c-7.443,-15.417 -11.146,-32.044 -11.146,-49.863c0,-17.818 3.703,-34.445 11.146,-49.863c7.443,-15.398 17.691,-28.964 30.706,-40.66c13.034,-11.696 28.14,-20.88 45.299,-27.571c17.158,-6.691 35.674,-10.028 55.527,-10.028c19.835,0 38.351,3.337 55.51,10.028c17.177,6.691 32.264,15.875 45.298,27.571c13.016,11.696 23.263,25.262 30.706,40.66c7.443,15.418 11.164,32.045 11.164,49.863c0,17.819 -3.721,34.446 -11.164,49.863c-7.443,15.399 -17.69,28.965 -30.706,40.661c-13.034,11.696 -28.121,20.898 -45.298,27.571c-17.159,6.691 -35.675,10.028 -55.51,10.028Z" style="fill:#faf9f9;fill-rule:nonzero;"/><path d="M1647.02,453.415c-26.068,0 -49.643,-2.988 -70.725,-8.927c-21.1,-5.94 -39.083,-14.849 -53.987,-26.747c-14.886,-11.86 -26.362,-26.911 -34.409,-45.096c-8.066,-18.204 -12.099,-39.579 -12.099,-64.071l-0,-236.207l132.136,-0l0,231.184c0,13.016 2.989,22.934 8.983,29.79c6.013,6.893 16.041,10.321 30.101,10.321c14.061,-0 24.089,-3.428 30.083,-10.321c5.995,-6.856 9.001,-16.774 9.001,-29.79l0,-231.184l132.76,-0l0,236.207c0,24.492 -4.033,45.867 -12.099,64.071c-8.066,18.185 -19.652,33.236 -34.739,45.096c-15.105,11.898 -33.199,20.807 -54.299,26.747c-21.082,5.939 -44.657,8.927 -70.707,8.927Zm0,-66.856c-62.053,-0 -93.053,-27.297 -93.053,-81.889l0,-187.738l-16.132,-0l-0,187.738c-0,31.182 9.423,55.069 28.231,71.568c18.827,16.535 45.794,24.803 80.954,24.803c35.143,-0 62.237,-8.268 81.266,-24.803c19.029,-16.499 28.525,-40.386 28.525,-71.568l-0,-187.738l-16.738,-0l0,187.738c0,54.592 -31.017,81.889 -93.053,81.889Z" style="fill:#faf9f9;fill-rule:nonzero;"/><path d="M1879.03,72.367l109.204,-0l107.938,142.604l107.316,-142.604l109.185,-0l0,371.552l-132.137,0l0,-133.676l-84.364,111.421l-85.005,-111.421l-0,133.676l-132.137,0l-0,-371.552Zm78.167,327.006l0,-255.676l138.975,181.578l138.333,-181.578l0,255.676l16.133,-0l-0,-282.441l-16.133,-0l-138.333,183.283l-138.975,-183.283l-16.132,-0l0,282.441l16.132,-0Z" style="fill:#faf9f9;fill-rule:nonzero;"/><path d="M2497.55,72.367l99.249,-0l156.959,371.552l-130.286,0l-13.657,-33.4l-125.299,-0l-13.657,33.4l-130.267,0l156.958,-371.552Zm77.544,256.263l-27.919,-65.189l-27.938,65.189l55.857,-0Zm-142.073,70.743l11.788,-27.865l204.732,0l11.769,27.865l17.378,-0l-119.726,-282.441l-23.575,-0l-119.726,282.441l17.36,-0Zm114.154,-269.059l96.774,227.83l-193.567,0l96.793,-227.83Z" style="fill:#faf9f9;fill-rule:nonzero;"/></g></g></svg>